<?xml version="1.0" encoding="utf-8"?>
<!-- Generator: Adobe Illustrator 16.0.0, SVG Export Plug-In . SVG Version: 6.00 Build 0)  -->
<svg version="1.2" baseProfile="tiny" id="图层_1"
	 xmlns="http://www.w3.org/2000/svg" xmlns:xlink="http://www.w3.org/1999/xlink" x="0px" y="0px" width="566.93px"
	 height="141.73px" viewBox="0 0 566.93 141.73" xml:space="preserve">
<text transform="matrix(1 0 0 1 142.4194 80.3887)" font-family="'SimHei'" font-size="82.6224">灰猫杂货铺</text>
<g>
	<path fill="#CDCDCD" d="M97.464,132.446c3.809,0,6.898-3.086,6.898-6.897V63.463h13.796v62.085c0,3.81-3.088,6.897-6.898,6.897
		H97.464z M97.464,132.446"/>
	<path fill="#2C2C2C" d="M111.26,137.968H28.48c-6.847,0-12.417-5.57-12.417-12.419V63.465h11.038v62.084
		c0,0.763,0.62,1.38,1.379,1.38h82.78c0.76,0,1.378-0.62,1.378-1.38V63.465h11.038v62.084
		C123.677,132.396,118.107,137.968,111.26,137.968L111.26,137.968z M111.26,137.968"/>
	<g>
		<path fill="none" d="M124.468,38.587l-2.128-15.132H17.401l-2.128,15.132c-0.03,0.216-0.074,0.43-0.129,0.643
			c-0.305,1.155-0.458,2.344-0.457,3.539c0,7.606,6.188,13.795,13.795,13.795c3.738,0,7.238-1.471,9.854-4.141
			c1.039-1.059,2.459-1.655,3.942-1.655c1.482,0,2.904,0.597,3.941,1.655c2.618,2.672,6.116,4.141,9.854,4.141
			c3.738,0,7.238-1.471,9.854-4.141c1.039-1.059,2.46-1.655,3.942-1.655c1.482,0,2.902,0.597,3.941,1.655
			c2.619,2.672,6.117,4.141,9.854,4.141c3.739,0,7.238-1.471,9.854-4.141c1.039-1.059,2.46-1.655,3.944-1.655
			c1.482,0,2.903,0.597,3.941,1.655c2.618,2.672,6.117,4.141,9.855,4.141c7.606,0,13.795-6.189,13.795-13.795
			c0-1.2-0.153-2.392-0.458-3.539C124.541,39.017,124.497,38.803,124.468,38.587z"/>
		<polygon fill="#CDCDCD" points="121.175,15.177 18.565,15.177 17.401,23.455 122.339,23.455 		"/>
		<path fill="#2C2C2C" d="M131.438,8.891c-0.384-2.725-2.715-4.75-5.465-4.75H13.771c-2.75,0-5.081,2.025-5.465,4.75L4.389,36.744
			c-0.426,1.707-0.658,3.461-0.715,5.228v1.762c0.508,13.249,11.438,23.871,24.809,23.871c4.994,0,9.75-1.459,13.797-4.175
			c4.044,2.716,8.803,4.175,13.795,4.175c4.994,0,9.75-1.459,13.796-4.175c4.046,2.716,8.804,4.175,13.797,4.175
			c4.992,0,9.748-1.459,13.795-4.175c4.044,2.716,8.803,4.175,13.796,4.175c13.693,0,24.833-11.142,24.833-24.833
			c0-2.032-0.249-4.055-0.739-6.027L131.438,8.891z M111.26,56.564c-3.738,0-7.237-1.469-9.855-4.141
			c-1.038-1.059-2.458-1.655-3.941-1.655c-1.484,0-2.905,0.597-3.944,1.655c-2.616,2.67-6.115,4.141-9.854,4.141
			c-3.737,0-7.236-1.469-9.854-4.141c-1.039-1.059-2.459-1.655-3.941-1.655c-1.482,0-2.904,0.597-3.942,1.655
			c-2.616,2.67-6.116,4.141-9.854,4.141c-3.738,0-7.236-1.469-9.854-4.141c-1.037-1.059-2.459-1.655-3.941-1.655
			c-1.483,0-2.904,0.597-3.942,1.655c-2.616,2.67-6.116,4.141-9.854,4.141c-7.607,0-13.795-6.189-13.795-13.795
			c-0.001-1.195,0.152-2.384,0.457-3.539c0.056-0.213,0.099-0.427,0.129-0.643l2.128-15.132l1.164-8.277h102.61l1.164,8.277
			l2.128,15.132c0.029,0.216,0.073,0.43,0.129,0.643c0.305,1.147,0.458,2.339,0.458,3.539
			C125.055,50.375,118.867,56.564,111.26,56.564z"/>
	</g>
	<path fill="#BFBFBF" d="M38.138,80.71H67.11c1.524,0,2.76,1.235,2.76,2.761v28.972c0,1.525-1.236,2.76-2.76,2.76H38.138
		c-1.524,0-2.76-1.234-2.76-2.76V83.471C35.379,81.945,36.615,80.71,38.138,80.71L38.138,80.71z M38.138,80.71"/>
</g>
<text transform="matrix(1 0 0 1 149.3335 128.999)" font-family="'SimHei'" font-size="36">Grey Cat Grocery Store</text>
</svg>
