<?xml version="1.0" standalone="no"?>
<!DOCTYPE svg PUBLIC "-//W3C//DTD SVG 20010904//EN"
 "http://www.w3.org/TR/2001/REC-SVG-20010904/DTD/svg10.dtd">
<svg version="1.0" xmlns="http://www.w3.org/2000/svg"
 width="589.000000pt" height="154.000000pt" viewBox="0 0 589.000000 154.000000"
 preserveAspectRatio="xMidYMid meet">

<g transform="translate(0.000000,154.000000) scale(0.100000,-0.100000)"
fill="#000000" stroke="none">
<path d="M385 1481 c-33 -16 -74 -44 -92 -62 -30 -32 -227 -330 -259 -391 -19
-37 -17 -135 4 -180 20 -42 720 -791 766 -819 39 -24 102 -24 143 -1 43 23
752 779 769 819 8 18 14 63 14 100 l0 68 -115 180 c-63 99 -131 197 -150 218
-20 21 -64 51 -98 68 l-62 29 -430 0 -430 0 -60 -29z m475 -136 c0 -18 -22
-78 -49 -136 -69 -146 -85 -239 -41 -239 33 0 105 -31 142 -60 20 -17 46 -30
58 -30 13 0 28 -12 38 -30 14 -24 24 -30 52 -30 19 0 55 12 79 25 24 14 46 23
48 21 3 -2 -1 -31 -8 -63 -7 -32 -12 -72 -10 -90 3 -41 -31 -89 -75 -105 -18
-6 -37 -22 -43 -34 -5 -13 -22 -31 -36 -40 -23 -15 -25 -22 -20 -54 l6 -37
-43 -6 c-79 -11 -126 13 -173 88 -27 42 -67 67 -82 51 -4 -3 -7 -32 -8 -64 -2
-56 -2 -57 -34 -60 -37 -4 -49 15 -30 50 10 16 14 76 15 198 1 96 6 219 12
273 10 101 28 148 122 317 16 30 30 69 30 86 0 17 3 34 7 38 13 13 43 -35 43
-69z"/>
<path d="M3608 1209 c-48 -24 -75 -76 -83 -160 -4 -35 -11 -77 -16 -94 -4 -16
-13 -61 -18 -100 -12 -86 -36 -232 -50 -300 -20 -99 -20 -163 -1 -188 l18 -22
1096 -3 c1195 -2 1144 -5 1183 54 9 15 24 64 31 108 35 217 42 258 57 346 9
52 23 133 31 180 24 137 20 156 -37 186 -24 12 -187 14 -1101 13 -1031 -1
-1074 -2 -1110 -20z m891 -93 c32 -33 34 -38 28 -87 -4 -28 -11 -56 -16 -63
-31 -37 -91 -288 -91 -380 0 -34 2 -37 16 -25 8 7 22 25 30 41 20 39 33 35 29
-8 -1 -20 4 -48 11 -63 19 -35 18 -47 -8 -82 -28 -38 -67 -59 -108 -59 -43 0
-66 41 -74 133 -6 68 4 197 20 263 l7 29 -21 -25 c-11 -14 -37 -57 -58 -95
-51 -96 -60 -105 -105 -105 -29 0 -42 6 -58 26 -30 38 -42 94 -35 157 4 31 2
62 -4 73 -8 15 -19 0 -67 -95 -31 -62 -65 -123 -76 -134 -10 -11 -19 -24 -19
-29 0 -4 -19 -27 -42 -51 -24 -24 -56 -60 -73 -81 l-30 -37 -40 13 c-35 11
-40 17 -43 45 -3 26 9 51 54 120 64 98 118 203 160 308 15 39 30 72 33 75 3 3
8 16 9 30 11 77 69 108 142 75 38 -17 78 -74 66 -94 -3 -5 1 -31 9 -58 14 -45
17 -50 40 -45 14 2 25 11 25 19 0 19 30 64 40 58 4 -3 15 11 25 31 13 29 20
34 38 28 12 -3 19 -3 15 1 -11 12 20 63 42 70 11 3 20 11 20 17 0 16 32 37 56
38 11 0 35 -16 53 -34z m441 -141 c4 -3 10 -28 14 -56 l7 -52 27 26 c31 29 72
44 72 27 0 -6 5 -8 10 -5 24 15 -8 -120 -51 -210 -10 -23 -21 -65 -25 -95 -5
-48 -3 -57 15 -74 21 -19 21 -19 72 29 44 42 52 54 54 91 3 49 37 125 74 166
13 16 49 42 80 59 31 17 66 40 78 51 17 16 23 17 30 6 11 -19 49 -38 73 -38
57 0 136 -76 146 -140 4 -22 11 -40 16 -40 5 0 6 -17 3 -37 -11 -63 -16 -73
-35 -73 -10 0 -22 -5 -26 -12 -5 -8 -2 -9 9 -5 30 11 18 -12 -30 -64 -74 -79
-117 -93 -233 -77 -73 9 -132 43 -158 89 -21 36 -27 36 -48 3 -13 -19 -14 -28
-5 -33 13 -9 6 -37 -17 -63 -8 -9 -34 -20 -59 -24 -53 -8 -114 16 -133 52 -10
18 -16 21 -27 12 -7 -6 -11 -19 -7 -30 7 -24 -45 -47 -129 -55 -124 -11 -193
30 -217 131 -25 107 -2 189 84 301 64 84 129 128 209 145 39 8 111 5 127 -5z"/>
<path d="M4334 849 c-3 -6 -1 -16 5 -22 8 -8 11 -5 11 11 0 24 -5 28 -16 11z"/>
<path d="M5424 827 c-3 -9 -27 -24 -52 -33 -70 -26 -86 -40 -116 -93 -31 -58
-33 -94 -6 -121 25 -25 61 -34 112 -27 79 11 125 66 133 163 6 61 0 75 -48
113 -14 11 -18 11 -23 -2z"/>
<path d="M4753 804 c-58 -25 -133 -146 -133 -214 0 -32 47 -80 77 -80 33 0 88
37 116 78 37 53 78 147 72 163 -4 12 -90 71 -98 68 -1 0 -16 -7 -34 -15z"/>
<path d="M2410 1196 c0 -7 -15 -44 -33 -82 -19 -38 -47 -97 -62 -132 l-28 -62
-55 6 c-49 5 -58 3 -71 -15 -9 -11 -32 -23 -51 -27 -22 -3 -30 -2 -22 3 7 5
15 34 18 65 11 109 -33 186 -98 174 -18 -3 -46 -17 -61 -31 -28 -27 -37 -58
-13 -49 7 3 21 -3 30 -12 14 -13 16 -27 11 -68 -6 -53 -44 -187 -55 -196 -3
-3 -17 -23 -30 -45 -14 -22 -43 -59 -66 -82 -23 -24 -38 -43 -33 -43 5 0 9 -4
9 -10 0 -5 -6 -7 -13 -4 -7 2 -23 -7 -35 -20 -12 -14 -33 -28 -47 -32 -14 -3
-25 -11 -25 -16 0 -6 -8 -7 -17 -4 -19 8 -33 -9 -33 -41 0 -16 6 -23 20 -23
10 0 28 -10 39 -21 l20 -22 30 29 c64 62 79 74 95 74 26 0 18 17 -11 25 -19 5
-23 9 -13 13 8 3 18 10 22 15 4 6 12 4 22 -5 8 -9 12 -19 8 -23 -4 -5 -1 -5 6
-1 7 4 9 12 6 18 -5 8 -1 9 10 5 9 -4 15 -3 11 2 -8 14 5 40 19 35 6 -2 22 5
34 16 17 16 21 27 16 47 -6 22 -4 25 9 20 19 -7 47 17 47 42 0 24 20 41 50 41
14 0 59 9 100 20 41 10 76 18 77 16 2 -1 -6 -43 -17 -92 -43 -195 -11 -286
101 -283 59 2 125 54 135 104 8 47 -3 86 -26 92 -11 3 -17 9 -14 14 3 5 2 9
-3 9 -4 0 -17 -15 -29 -33 -12 -17 -35 -37 -53 -44 -30 -11 -31 -11 -31 18 0
16 5 29 11 29 7 0 8 11 4 29 -3 17 -2 32 5 36 5 3 8 11 5 16 -4 5 5 31 18 58
14 26 28 62 32 80 3 17 38 93 76 170 72 145 79 170 53 192 -21 18 -104 22
-104 5z m-646 -682 c3 -8 2 -12 -4 -9 -6 3 -10 10 -10 16 0 14 7 11 14 -7z"/>
<path d="M3245 1106 c-30 -30 -39 -64 -26 -99 31 -80 172 -37 156 47 -8 38
-48 76 -81 76 -14 0 -36 -11 -49 -24z"/>
<path d="M2593 924 c-40 -41 -73 -83 -73 -94 0 -24 21 -70 31 -70 5 0 6 -35 2
-78 -9 -125 27 -202 94 -202 47 0 116 41 147 86 l23 35 6 -42 c8 -63 35 -93
85 -97 23 -2 51 2 62 8 31 17 60 86 50 120 -4 14 -4 35 1 46 9 19 9 19 -3 0
-62 -92 -110 -111 -116 -46 -3 39 33 134 99 257 43 80 47 104 23 124 -31 25
-54 21 -66 -12 -6 -17 -14 -26 -17 -20 -4 5 -22 -29 -41 -76 -19 -47 -47 -99
-62 -115 -16 -17 -28 -35 -28 -42 0 -21 -112 -126 -135 -126 -31 0 -45 19 -45
59 0 64 52 197 101 260 11 13 19 29 19 36 0 10 -72 66 -82 65 -2 -1 -36 -34
-75 -76z"/>
<path d="M3201 860 c-19 -16 -49 -36 -68 -45 -23 -11 -33 -23 -33 -39 0 -27
29 -56 54 -56 15 0 17 -6 12 -32 -3 -18 -8 -62 -12 -98 -5 -56 -4 -68 13 -89
15 -19 25 -23 46 -17 37 9 58 45 67 113 4 32 11 67 15 78 4 11 -9 -2 -29 -30
-29 -40 -36 -46 -36 -28 0 39 36 120 73 165 38 47 38 52 -7 86 -37 29 -54 27
-95 -8z"/>
</g>
</svg>
