<svg width="120.00000000000001" height="31" xmlns="http://www.w3.org/2000/svg" stroke="null" style="vector-effect: non-scaling-stroke;" preserveAspectRatio="xMidYMid meet">

 <g stroke="null">
  <title stroke="null">background</title>
  <rect stroke="null" fill="none" id="canvas_background" height="33" width="122" y="-1" x="-1"/>
 </g>
 <g stroke="null">
  <title stroke="null">Layer 1</title>
  <g id="svg_1" fill="#000000" transform="translate(0,154) scale(0.10000000149011612,-0.10000000149011612) ">
   <path fill="#007fff" stroke="null" id="svg_2" d="m78.884416,1532.421765c-6.727191,-3.261669 -15.085217,-8.969588 -18.754594,-12.638965c-6.115628,-6.523337 -46.274922,-67.271913 -52.798259,-79.707024c-3.873231,-7.542608 -3.465523,-27.520328 0.815417,-36.693771c4.077086,-8.56188 146.775083,-161.248737 156.15238,-166.956657c7.950317,-4.892503 20.793137,-4.892503 29.151162,-0.203854c8.765734,4.688648 153.29842,158.802485 156.763942,166.956657c1.630834,3.669377 2.85396,12.84282 2.85396,20.385428l0,13.862091l-23.443242,36.693771c-12.84282,20.181574 -26.704911,40.159293 -30.578142,44.440233c-4.077086,4.28094 -13.046674,10.396568 -19.97772,13.862091l-12.638965,5.911774l-87.657341,0l-87.657341,0l-12.231257,-5.911774zm96.830784,-27.724182c0,-3.669377 -4.484794,-15.900634 -9.98886,-27.724182c-14.065945,-29.762725 -17.327614,-48.721173 -8.358026,-48.721173c6.727191,0 21.4047,-6.319483 28.947308,-12.231257c4.077086,-3.465523 9.377297,-6.115628 11.823548,-6.115628c2.650106,0 5.70792,-2.446251 7.746463,-6.115628c2.85396,-4.892503 4.892503,-6.115628 10.600423,-6.115628c3.873231,0 11.211985,2.446251 16.104488,5.096357c4.892503,2.85396 9.377297,4.688648 9.785006,4.28094c0.611563,-0.407709 -0.203854,-6.319483 -1.630834,-12.84282c-1.42698,-6.523337 -2.446251,-14.677508 -2.038543,-18.346885c0.611563,-8.358026 -6.319483,-18.143031 -15.289071,-21.4047c-3.669377,-1.223126 -7.542608,-4.484794 -8.765734,-6.931046c-1.019271,-2.650106 -4.484794,-6.319483 -7.338754,-8.154171c-4.688648,-3.057814 -5.096357,-4.484794 -4.077086,-11.008131l1.223126,-7.542608l-8.765734,-1.223126c-16.104488,-2.242397 -25.685639,2.650106 -35.266791,17.939177c-5.504066,8.56188 -13.658237,13.658237 -16.716051,10.396568c-0.815417,-0.611563 -1.42698,-6.523337 -1.630834,-13.046674c-0.407709,-11.41584 -0.407709,-11.619694 -6.931046,-12.231257c-7.542608,-0.815417 -9.98886,3.057814 -6.115628,10.192714c2.038543,3.261669 2.85396,15.492925 3.057814,40.363148c0.203854,19.570011 1.223126,44.644088 2.446251,55.652219c2.038543,20.589282 5.70792,30.170434 24.870222,64.621807c3.261669,6.115628 6.115628,14.065945 6.115628,17.531468c0,3.465523 0.611563,6.931046 1.42698,7.746463c2.650106,2.650106 8.765734,-7.1349 8.765734,-14.065945z"/>
   <path fill="#007fff" stroke="null" id="svg_3" d="m735.906765,1476.9734c-9.785006,-4.892503 -15.289071,-15.492925 -16.919905,-32.616685c-0.815417,-7.1349 -2.242397,-15.69678 -3.261669,-19.162302c-0.815417,-3.261669 -2.650106,-12.435111 -3.669377,-20.385428c-2.446251,-17.531468 -7.338754,-47.294193 -10.192714,-61.156284c-4.077086,-20.181574 -4.077086,-33.228248 -0.203854,-38.324605l3.669377,-4.484794l223.424293,-0.611563c243.605866,-0.407709 233.209298,-1.019271 241.159615,11.008131c1.834689,3.057814 4.892503,13.046674 6.319483,22.016262c7.1349,44.236379 8.56188,52.594405 11.619694,70.533581c1.834689,10.600423 4.688648,27.112619 6.319483,36.693771c4.892503,27.928037 4.077086,31.801268 -7.542608,37.916896c-4.892503,2.446251 -38.120751,2.85396 -224.443564,2.650106c-210.173764,-0.203854 -218.939498,-0.407709 -226.278252,-4.077086zm181.634165,-18.958448c6.523337,-6.727191 6.931046,-7.746463 5.70792,-17.735322c-0.815417,-5.70792 -2.242397,-11.41584 -3.261669,-12.84282c-6.319483,-7.542608 -18.55074,-58.710033 -18.55074,-77.464627c0,-6.931046 0.407709,-7.542608 3.261669,-5.096357c1.630834,1.42698 4.484794,5.096357 6.115628,8.358026c4.077086,7.950317 6.727191,7.1349 5.911774,-1.630834c-0.203854,-4.077086 0.815417,-9.785006 2.242397,-12.84282c3.873231,-7.1349 3.669377,-9.581151 -1.630834,-16.716051c-5.70792,-7.746463 -13.658237,-12.027403 -22.016262,-12.027403c-8.765734,0 -13.454383,8.358026 -15.085217,27.112619c-1.223126,13.862091 0.815417,40.159293 4.077086,53.613676l1.42698,5.911774l-4.28094,-5.096357c-2.242397,-2.85396 -7.542608,-11.619694 -11.823548,-19.366157c-10.396568,-19.570011 -12.231257,-21.4047 -21.4047,-21.4047c-5.911774,0 -8.56188,1.223126 -11.823548,5.300211c-6.115628,7.746463 -8.56188,19.162302 -7.1349,32.005122c0.815417,6.319483 0.407709,12.638965 -0.815417,14.881363c-1.630834,3.057814 -3.873231,0 -13.658237,-19.366157c-6.319483,-12.638965 -13.250528,-25.074077 -15.492925,-27.316474c-2.038543,-2.242397 -3.873231,-4.892503 -3.873231,-5.911774c0,-0.815417 -3.873231,-5.504066 -8.56188,-10.396568c-4.892503,-4.892503 -11.41584,-12.231257 -14.881363,-16.512197l-6.115628,-7.542608l-8.154171,2.650106c-7.1349,2.242397 -8.154171,3.465523 -8.765734,9.173443c-0.611563,5.300211 1.834689,10.396568 11.008131,24.462514c13.046674,19.97772 24.054805,41.382419 32.616685,62.787119c3.057814,7.950317 6.115628,14.677508 6.727191,15.289071c0.611563,0.611563 1.630834,3.261669 1.834689,6.115628c2.242397,15.69678 14.065945,22.016262 28.947308,15.289071c7.746463,-3.465523 15.900634,-15.085217 13.454383,-19.162302c-0.611563,-1.019271 0.203854,-6.319483 1.834689,-11.823548c2.85396,-9.173443 3.465523,-10.192714 8.154171,-9.173443c2.85396,0.407709 5.096357,2.242397 5.096357,3.873231c0,3.873231 6.115628,13.046674 8.154171,11.823548c0.815417,-0.611563 3.057814,2.242397 5.096357,6.319483c2.650106,5.911774 4.077086,6.931046 7.746463,5.70792c2.446251,-0.611563 3.873231,-0.611563 3.057814,0.203854c-2.242397,2.446251 4.077086,12.84282 8.56188,14.2698c2.242397,0.611563 4.077086,2.242397 4.077086,3.465523c0,3.261669 6.523337,7.542608 11.41584,7.746463c2.242397,0 7.1349,-3.261669 10.804277,-6.931046zm89.899738,-28.743454c0.815417,-0.611563 2.038543,-5.70792 2.85396,-11.41584l1.42698,-10.600423l5.504066,5.300211c6.319483,5.911774 14.677508,8.969588 14.677508,5.504066c0,-1.223126 1.019271,-1.630834 2.038543,-1.019271c4.892503,3.057814 -1.630834,-24.462514 -10.396568,-42.809399c-2.038543,-4.688648 -4.28094,-13.250528 -5.096357,-19.366157c-1.019271,-9.785006 -0.611563,-11.619694 3.057814,-15.085217c4.28094,-3.873231 4.28094,-3.873231 14.677508,5.911774c8.969588,8.56188 10.600423,11.008131 11.008131,18.55074c0.611563,9.98886 7.542608,25.481785 15.085217,33.839811c2.650106,3.261669 9.98886,8.56188 16.308343,12.027403c6.319483,3.465523 13.454383,8.154171 15.900634,10.396568c3.465523,3.261669 4.688648,3.465523 6.115628,1.223126c2.242397,-3.873231 9.98886,-7.746463 14.881363,-7.746463c11.619694,0 27.724182,-15.492925 29.762725,-28.539599c0.815417,-4.484794 2.242397,-8.154171 3.261669,-8.154171c1.019271,0 1.223126,-3.465523 0.611563,-7.542608c-2.242397,-12.84282 -3.261669,-14.881363 -7.1349,-14.881363c-2.038543,0 -4.484794,-1.019271 -5.300211,-2.446251c-1.019271,-1.630834 -0.407709,-1.834689 1.834689,-1.019271c6.115628,2.242397 3.669377,-2.446251 -6.115628,-13.046674c-15.085217,-16.104488 -23.850951,-18.958448 -47.498048,-15.69678c-14.881363,1.834689 -26.908765,8.765734 -32.208976,18.143031c-4.28094,7.338754 -5.504066,7.338754 -9.785006,0.611563c-2.650106,-3.873231 -2.85396,-5.70792 -1.019271,-6.727191c2.650106,-1.834689 1.223126,-7.542608 -3.465523,-12.84282c-1.630834,-1.834689 -6.931046,-4.077086 -12.027403,-4.892503c-10.804277,-1.630834 -23.239388,3.261669 -27.112619,10.600423c-2.038543,3.669377 -3.261669,4.28094 -5.504066,2.446251c-1.42698,-1.223126 -2.242397,-3.873231 -1.42698,-6.115628c1.42698,-4.892503 -9.173443,-9.581151 -26.297202,-11.211985c-25.277931,-2.242397 -39.343876,6.115628 -44.236379,26.704911c-5.096357,21.812408 -0.407709,38.528459 17.12376,61.360139c13.046674,17.12376 26.297202,26.093348 42.605545,29.558871c7.950317,1.630834 22.627825,1.019271 25.889494,-1.019271z"/>
   <path fill="#007fff" stroke="null" id="svg_4" d="m883.904974,1403.585859c-0.611563,-1.223126 -0.203854,-3.261669 1.019271,-4.484794c1.630834,-1.630834 2.242397,-1.019271 2.242397,2.242397c0,4.892503 -1.019271,5.70792 -3.261669,2.242397z"/>
   <path fill="#007fff" stroke="null" id="svg_5" d="m1106.10614,1399.101064c-0.611563,-1.834689 -5.504066,-4.892503 -10.600423,-6.727191c-14.2698,-5.300211 -17.531468,-8.154171 -23.647097,-18.958448c-6.319483,-11.823548 -6.727191,-19.162302 -1.223126,-24.666368c5.096357,-5.096357 12.435111,-6.931046 22.83168,-5.504066c16.104488,2.242397 25.481785,13.454383 27.112619,33.228248c1.223126,12.435111 0,15.289071 -9.785006,23.035534c-2.85396,2.242397 -3.669377,2.242397 -4.688648,-0.407709z"/>
   <path fill="#007fff" stroke="null" id="svg_6" d="m969.319918,1394.412416c-11.823548,-5.096357 -27.112619,-29.762725 -27.112619,-43.624816c0,-6.523337 9.581151,-16.308343 15.69678,-16.308343c6.727191,0 17.939177,7.542608 23.647097,15.900634c7.542608,10.804277 15.900634,29.966579 14.677508,33.228248c-0.815417,2.446251 -18.346885,14.473654 -19.97772,13.862091c-0.203854,0 -3.261669,-1.42698 -6.931046,-3.057814z"/>
   <path fill="#007fff" stroke="null" id="svg_7" d="m491.689336,1474.323294c0,-1.42698 -3.057814,-8.969588 -6.727191,-16.716051c-3.873231,-7.746463 -9.581151,-19.773865 -12.638965,-26.908765l-5.70792,-12.638965l-11.211985,1.223126c-9.98886,1.019271 -11.823548,0.611563 -14.473654,-3.057814c-1.834689,-2.242397 -6.523337,-4.688648 -10.396568,-5.504066c-4.484794,-0.611563 -6.115628,-0.407709 -4.484794,0.611563c1.42698,1.019271 3.057814,6.931046 3.669377,13.250528c2.242397,22.220117 -6.727191,37.916896 -19.97772,35.470645c-3.669377,-0.611563 -9.377297,-3.465523 -12.435111,-6.319483c-5.70792,-5.504066 -7.542608,-11.823548 -2.650106,-9.98886c1.42698,0.611563 4.28094,-0.611563 6.115628,-2.446251c2.85396,-2.650106 3.261669,-5.504066 2.242397,-13.862091c-1.223126,-10.804277 -8.969588,-38.120751 -11.211985,-39.955439c-0.611563,-0.611563 -3.465523,-4.688648 -6.115628,-9.173443c-2.85396,-4.484794 -8.765734,-12.027403 -13.454383,-16.716051c-4.688648,-4.892503 -7.746463,-8.765734 -6.727191,-8.765734c1.019271,0 1.834689,-0.815417 1.834689,-2.038543c0,-1.019271 -1.223126,-1.42698 -2.650106,-0.815417c-1.42698,0.407709 -4.688648,-1.42698 -7.1349,-4.077086c-2.446251,-2.85396 -6.727191,-5.70792 -9.581151,-6.523337c-2.85396,-0.611563 -5.096357,-2.242397 -5.096357,-3.261669c0,-1.223126 -1.630834,-1.42698 -3.465523,-0.815417c-3.873231,1.630834 -6.727191,-1.834689 -6.727191,-8.358026c0,-3.261669 1.223126,-4.688648 4.077086,-4.688648c2.038543,0 5.70792,-2.038543 7.950317,-4.28094l4.077086,-4.484794l6.115628,5.911774c13.046674,12.638965 16.104488,15.085217 19.366157,15.085217c5.300211,0 3.669377,3.465523 -2.242397,5.096357c-3.873231,1.019271 -4.688648,1.834689 -2.650106,2.650106c1.630834,0.611563 3.669377,2.038543 4.484794,3.057814c0.815417,1.223126 2.446251,0.815417 4.484794,-1.019271c1.630834,-1.834689 2.446251,-3.873231 1.630834,-4.688648c-0.815417,-1.019271 -0.203854,-1.019271 1.223126,-0.203854c1.42698,0.815417 1.834689,2.446251 1.223126,3.669377c-1.019271,1.630834 -0.203854,1.834689 2.038543,1.019271c1.834689,-0.815417 3.057814,-0.611563 2.242397,0.407709c-1.630834,2.85396 1.019271,8.154171 3.873231,7.1349c1.223126,-0.407709 4.484794,1.019271 6.931046,3.261669c3.465523,3.261669 4.28094,5.504066 3.261669,9.581151c-1.223126,4.484794 -0.815417,5.096357 1.834689,4.077086c3.873231,-1.42698 9.581151,3.465523 9.581151,8.56188c0,4.892503 4.077086,8.358026 10.192714,8.358026c2.85396,0 12.027403,1.834689 20.385428,4.077086c8.358026,2.038543 15.492925,3.669377 15.69678,3.261669c0.407709,-0.203854 -1.223126,-8.765734 -3.465523,-18.754594c-8.765734,-39.751585 -2.242397,-58.302325 20.589282,-57.690762c12.027403,0.407709 25.481785,11.008131 27.520328,21.200845c1.630834,9.581151 -0.611563,17.531468 -5.300211,18.754594c-2.242397,0.611563 -3.465523,1.834689 -2.85396,2.85396c0.611563,1.019271 0.407709,1.834689 -0.611563,1.834689c-0.815417,0 -3.465523,-3.057814 -5.911774,-6.727191c-2.446251,-3.465523 -7.1349,-7.542608 -10.804277,-8.969588c-6.115628,-2.242397 -6.319483,-2.242397 -6.319483,3.669377c0,3.261669 1.019271,5.911774 2.242397,5.911774c1.42698,0 1.630834,2.242397 0.815417,5.911774c-0.611563,3.465523 -0.407709,6.523337 1.019271,7.338754c1.019271,0.611563 1.630834,2.242397 1.019271,3.261669c-0.815417,1.019271 1.019271,6.319483 3.669377,11.823548c2.85396,5.300211 5.70792,12.638965 6.523337,16.308343c0.611563,3.465523 7.746463,18.958448 15.492925,34.655228c14.677508,29.558871 16.104488,34.655228 10.804277,39.140022c-4.28094,3.669377 -21.200845,4.484794 -21.200845,1.019271zm-131.689866,-139.02862c0.611563,-1.630834 0.407709,-2.446251 -0.815417,-1.834689c-1.223126,0.611563 -2.038543,2.038543 -2.038543,3.261669c0,2.85396 1.42698,2.242397 2.85396,-1.42698z"/>
   <path fill="#007fff" stroke="null" id="svg_8" d="m661.907661,1455.976409c-6.115628,-6.115628 -7.950317,-13.046674 -5.300211,-20.181574c6.319483,-16.308343 35.062936,-7.542608 31.801268,9.581151c-1.630834,7.746463 -9.785006,15.492925 -16.512197,15.492925c-2.85396,0 -7.338754,-2.242397 -9.98886,-4.892503z"/>
   <path fill="#007fff" stroke="null" id="svg_9" d="m528.99467,1418.87493c-8.154171,-8.358026 -14.881363,-16.919905 -14.881363,-19.162302c0,-4.892503 4.28094,-14.2698 6.319483,-14.2698c1.019271,0 1.223126,-7.1349 0.407709,-15.900634c-1.834689,-25.481785 5.504066,-41.178565 19.162302,-41.178565c9.581151,0 23.647097,8.358026 29.966579,17.531468l4.688648,7.1349l1.223126,-8.56188c1.630834,-12.84282 7.1349,-18.958448 17.327614,-19.773865c4.688648,-0.407709 10.396568,0.407709 12.638965,1.630834c6.319483,3.465523 12.231257,17.531468 10.192714,24.462514c-0.815417,2.85396 -0.815417,7.1349 0.203854,9.377297c1.834689,3.873231 1.834689,3.873231 -0.611563,0c-12.638965,-18.754594 -22.423971,-22.627825 -23.647097,-9.377297c-0.611563,7.950317 6.727191,27.316474 20.181574,52.39055c8.765734,16.308343 9.581151,21.200845 4.688648,25.277931c-6.319483,5.096357 -11.008131,4.28094 -13.454383,-2.446251c-1.223126,-3.465523 -2.85396,-5.300211 -3.465523,-4.077086c-0.815417,1.019271 -4.484794,-5.911774 -8.358026,-15.492925c-3.873231,-9.581151 -9.581151,-20.181574 -12.638965,-23.443242c-3.261669,-3.465523 -5.70792,-7.1349 -5.70792,-8.56188c0,-4.28094 -22.83168,-25.685639 -27.520328,-25.685639c-6.319483,0 -9.173443,3.873231 -9.173443,12.027403c0,13.046674 10.600423,40.159293 20.589282,53.002113c2.242397,2.650106 3.873231,5.911774 3.873231,7.338754c0,2.038543 -14.677508,13.454383 -16.716051,13.250528c-0.407709,-0.203854 -7.338754,-6.931046 -15.289071,-15.492925z"/>
   <path fill="#007fff" stroke="null" id="svg_10" d="m652.938073,1405.828256c-3.873231,-3.261669 -9.98886,-7.338754 -13.862091,-9.173443c-4.688648,-2.242397 -6.727191,-4.688648 -6.727191,-7.950317c0,-5.504066 5.911774,-11.41584 11.008131,-11.41584c3.057814,0 3.465523,-1.223126 2.446251,-6.523337c-0.611563,-3.669377 -1.630834,-12.638965 -2.446251,-19.97772c-1.019271,-11.41584 -0.815417,-13.862091 2.650106,-18.143031c3.057814,-3.873231 5.096357,-4.688648 9.377297,-3.465523c7.542608,1.834689 11.823548,9.173443 13.658237,23.035534c0.815417,6.523337 2.242397,13.658237 3.057814,15.900634c0.815417,2.242397 -1.834689,-0.407709 -5.911774,-6.115628c-5.911774,-8.154171 -7.338754,-9.377297 -7.338754,-5.70792c0,7.950317 7.338754,24.462514 14.881363,33.635956c7.746463,9.581151 7.746463,10.600423 -1.42698,17.531468c-7.542608,5.911774 -11.008131,5.504066 -19.366157,-1.630834z"/>
  </g>
 </g>
</svg>