<?xml version="1.0" standalone="no"?>
<!DOCTYPE svg PUBLIC "-//W3C//DTD SVG 20010904//EN"
 "http://www.w3.org/TR/2001/REC-SVG-20010904/DTD/svg10.dtd">
<svg version="1.0" xmlns="http://www.w3.org/2000/svg"
 width="494.000000pt" height="126.000000pt" viewBox="0 0 494.000000 126.000000"
 preserveAspectRatio="xMidYMid meet">

<g transform="translate(0.000000,126.000000) scale(0.100000,-0.100000)"
fill="#000000" stroke="none">
<path d="M4766 1169 c-7 -55 -5 -64 15 -85 24 -26 67 -32 87 -12 7 7 12 42 12
85 l0 73 -54 0 -53 0 -7 -61z"/>
<path d="M4072 1197 c-6 -7 -11 -22 -10 -32 1 -11 -44 -106 -100 -211 -87
-163 -101 -196 -96 -223 6 -27 11 -31 39 -31 38 0 132 59 190 119 27 28 47 41
66 41 24 0 114 25 162 45 16 7 16 5 -1 -36 -28 -65 -98 -281 -125 -384 l-24
-90 -17 53 c-15 43 -16 61 -7 103 14 65 14 112 -1 127 -7 7 -30 12 -51 12 -33
0 -49 -8 -94 -47 -30 -25 -60 -57 -65 -69 -6 -13 -26 -28 -44 -34 -39 -13 -44
-38 -15 -64 17 -15 25 -16 55 -6 19 6 53 25 76 41 23 17 45 28 48 24 4 -3 -16
-71 -43 -149 -43 -126 -48 -146 -35 -161 9 -10 13 -35 11 -66 -3 -56 10 -79
43 -79 35 0 68 44 98 133 26 76 28 79 28 42 0 -48 14 -65 52 -65 23 0 29 6 37
38 5 20 14 111 20 202 11 178 29 259 66 296 32 32 70 23 59 -15 -4 -14 -8 -47
-9 -73 -3 -68 -3 -68 -20 -68 -24 0 -29 -29 -9 -51 12 -13 17 -33 15 -60 -5
-96 68 -92 102 6 11 32 21 41 63 57 66 26 84 44 84 84 0 64 -86 84 -105 25 -8
-25 -25 -28 -25 -5 0 9 7 44 16 78 9 33 13 76 11 94 -5 28 0 38 34 71 46 43
105 79 115 68 4 -3 2 -73 -4 -154 -6 -82 -9 -179 -8 -218 2 -48 -3 -87 -16
-125 -40 -117 14 -212 70 -123 l23 35 -12 199 c-9 142 -9 222 -2 281 6 46 10
101 9 123 -1 39 -2 40 -38 43 -30 3 -50 -5 -105 -42 -45 -31 -71 -42 -77 -36
-7 7 -6 17 2 30 6 11 12 27 12 36 0 9 20 34 45 56 25 22 45 43 45 48 0 5 -14
11 -30 15 -24 5 -32 14 -37 36 -5 25 -10 29 -39 29 -37 0 -57 -26 -69 -92 -8
-43 -5 -40 -113 -107 -77 -48 -82 -50 -61 -22 31 42 14 61 -55 61 -39 0 -61
-6 -90 -26 -22 -15 -36 -20 -34 -12 2 7 16 52 32 100 28 83 29 87 13 112 -19
28 -39 33 -55 13z m348 -305 c0 -29 -7 -45 -30 -67 -16 -16 -32 -26 -35 -24
-4 5 29 101 41 121 12 20 24 5 24 -30z"/>
<path d="M441 1176 c-12 -13 -37 -62 -56 -110 -18 -47 -43 -100 -55 -117 -13
-17 -20 -38 -17 -50 3 -11 -17 -78 -44 -151 -27 -72 -66 -185 -86 -252 -20
-66 -58 -170 -85 -230 -40 -90 -47 -115 -42 -145 9 -47 21 -61 53 -61 23 0 34
11 69 73 50 87 111 247 143 375 13 50 27 92 30 92 4 0 16 -16 28 -35 18 -31
25 -35 61 -35 22 0 40 -4 40 -9 0 -4 -13 -38 -30 -74 -60 -133 -26 -158 65
-50 71 85 129 182 156 259 16 47 32 70 80 112 45 41 59 60 59 81 0 36 -29 61
-78 68 -37 5 -39 3 -45 -23 -3 -16 -12 -37 -19 -47 -12 -16 -16 -17 -48 -4
l-34 15 -26 -42 c-15 -22 -48 -65 -74 -93 -41 -46 -51 -52 -74 -47 -15 4 -29
8 -31 10 -2 2 11 42 28 89 17 47 31 97 31 109 0 21 9 26 87 45 154 39 218 76
211 122 -2 19 -13 24 -65 35 -35 7 -76 21 -92 30 -24 14 -33 15 -44 5 -10 -7
-17 -8 -21 -2 -4 5 -1 13 5 16 7 5 1 18 -17 36 -33 35 -35 35 -63 5z m104
-112 c19 -29 13 -38 -27 -48 -32 -7 -33 -5 -16 41 14 40 21 41 43 7z m-32
-439 c-3 -9 -8 -14 -10 -11 -3 3 -2 9 2 15 9 16 15 13 8 -4z"/>
<path d="M3534 1175 c-23 -35 -33 -89 -34 -176 l0 -76 -42 -19 c-58 -26 -181
-119 -248 -188 -30 -31 -57 -56 -61 -56 -7 0 -34 168 -28 173 2 2 28 20 56 41
64 46 93 81 93 112 0 38 -46 31 -121 -17 -95 -61 -109 -76 -109 -120 0 -21 4
-40 9 -43 4 -3 11 -39 14 -81 8 -90 28 -142 59 -154 19 -7 27 -3 43 19 86 115
198 217 291 264 58 30 63 25 55 -59 l-6 -59 -128 -55 c-139 -58 -139 -58 -99
-121 9 -14 15 -39 13 -56 -1 -18 2 -35 7 -38 6 -4 5 -23 -4 -53 -19 -62 -18
-74 6 -80 11 -3 20 -10 20 -15 0 -13 -29 -67 -61 -115 -61 -88 -25 -85 70 6
67 65 75 69 98 58 19 -9 26 -8 34 4 19 29 40 117 57 235 l17 121 63 12 c80 15
132 39 132 63 0 14 -8 18 -35 18 -19 0 -35 4 -35 9 0 6 -21 11 -47 13 -27 2
-47 6 -45 11 1 4 2 41 2 82 l0 74 58 37 c60 38 102 73 102 85 0 20 -32 13 -81
-17 -30 -18 -59 -34 -65 -34 -14 0 -7 90 12 145 11 34 11 42 -3 57 -22 25 -40
23 -59 -7z m-78 -532 c-3 -10 -10 -46 -17 -80 -9 -51 -15 -63 -30 -63 -23 0
-24 13 -4 30 8 7 15 23 15 35 0 24 -17 35 -53 35 -16 0 -9 8 28 29 60 35 68
36 61 14z m-46 -249 c0 -32 -2 -35 -22 -29 -13 4 -31 9 -40 11 -21 6 -14 28
15 42 38 19 47 14 47 -24z"/>
<path d="M1798 1107 c-33 -30 -319 -407 -389 -513 -93 -140 -122 -269 -79
-354 16 -30 26 -40 45 -40 22 0 25 4 25 36 0 20 -9 52 -21 70 -31 50 -12 114
77 263 40 67 48 76 74 76 17 0 30 -2 30 -6 0 -3 -22 -30 -50 -61 -27 -31 -50
-61 -50 -67 0 -6 20 -1 45 11 24 12 47 19 51 15 3 -3 -13 -28 -36 -56 -45 -53
-47 -77 -8 -83 20 -3 24 -10 29 -60 7 -63 21 -88 50 -88 19 0 49 35 49 59 0 7
-6 19 -13 25 -11 9 -12 39 -8 139 l6 128 52 50 c71 67 82 65 76 -13 -16 -198
-50 -347 -88 -383 -21 -19 -23 -24 -11 -40 20 -27 61 -12 92 34 35 53 69 160
95 294 36 190 30 247 -30 247 -27 0 -101 -42 -166 -94 -36 -29 -36 -29 -55
-10 -19 19 -18 21 82 122 89 90 105 102 135 102 54 0 73 15 73 57 0 20 -7 44
-15 53 -12 13 -13 22 -3 47 9 25 9 35 -1 47 -18 22 -34 20 -63 -7z"/>
<path d="M2229 1118 c-7 -29 -4 -59 7 -69 21 -18 101 36 83 57 -9 11 -87 21
-90 12z"/>
<path d="M2448 1023 c-57 -67 -332 -452 -332 -467 -1 -29 28 -43 58 -27 25 14
36 12 69 -11 25 -18 51 1 55 41 3 24 -1 31 -13 31 -10 0 -15 6 -12 13 31 79
40 96 48 91 5 -3 9 -49 9 -103 l0 -98 -64 -38 c-68 -39 -227 -156 -291 -213
-36 -32 -36 -34 -21 -57 9 -14 20 -25 25 -25 5 0 54 39 108 86 95 84 213 174
227 174 9 0 0 -189 -8 -198 -10 -9 -7 -62 4 -83 12 -22 55 -26 63 -5 3 7 8 34
12 59 6 40 10 46 37 51 42 8 36 47 -9 61 -33 9 -33 10 -33 72 0 58 3 66 37
103 36 41 36 55 -2 62 -18 3 -20 11 -20 87 l0 84 73 49 c63 42 72 52 66 71 -8
27 -22 45 -45 57 -14 8 -26 -4 -74 -75 -31 -47 -63 -85 -71 -85 -8 0 -14 2
-14 5 0 17 48 95 105 170 67 89 83 135 47 135 -11 0 -26 -8 -34 -17z"/>
<path d="M1276 950 c-54 -66 -86 -85 -101 -60 -24 39 -181 -54 -221 -131 -16
-33 -19 -112 -4 -140 23 -42 134 -9 194 59 11 12 23 22 28 22 4 0 8 -28 8 -62
0 -59 -3 -66 -69 -172 -88 -140 -151 -271 -151 -311 0 -68 62 -104 76 -43 8
39 102 276 132 333 20 40 20 40 30 15 5 -14 12 -61 16 -106 l7 -81 -35 -31
c-42 -37 -50 -77 -13 -69 12 3 44 9 70 13 l48 6 -6 37 c-24 145 -41 272 -37
275 2 3 4 43 2 88 -3 136 -1 155 20 201 12 24 34 57 51 73 l30 29 -3 -55 c-3
-51 -5 -56 -41 -75 l-37 -21 22 -21 c13 -11 41 -23 63 -26 l40 -6 29 54 c24
47 28 63 22 102 -7 56 -46 124 -84 152 l-29 20 -57 -69z"/>
<path d="M2702 958 c-8 -8 -12 -60 -12 -155 0 -79 -3 -143 -7 -143 -5 0 -17 7
-27 15 -11 8 -27 15 -35 15 -9 0 -39 10 -68 22 -67 28 -83 17 -62 -39 13 -34
18 -38 47 -35 18 2 32 1 32 -3 0 -3 -20 -32 -46 -62 -40 -50 -43 -58 -30 -71
13 -13 19 -11 53 15 48 39 105 73 119 73 15 0 27 -91 14 -104 -16 -16 -12 -75
12 -167 l22 -87 -32 -37 c-26 -29 -31 -40 -21 -51 18 -22 51 -16 88 17 32 29
33 33 26 77 -4 26 -8 70 -9 98 0 28 -7 58 -14 67 -11 13 -10 29 2 91 9 41 16
92 16 112 0 31 9 48 50 95 66 76 66 107 -3 123 -27 6 -28 5 -25 -30 2 -21 -2
-39 -8 -41 -12 -4 -40 84 -50 160 -7 52 -15 62 -32 45z"/>
<path d="M2130 819 c-178 -117 -182 -120 -165 -139 26 -29 74 -25 124 8 60 40
241 211 241 227 0 8 -4 16 -9 19 -5 3 -91 -48 -191 -115z"/>
<path d="M3206 498 c-3 -13 -6 -58 -6 -101 0 -63 3 -79 16 -84 30 -11 49 11
47 57 -5 112 -40 190 -57 128z"/>
<path d="M655 425 c-23 -61 -25 -78 -15 -90 18 -22 32 -19 84 20 55 43 60 74
19 117 -43 45 -57 38 -88 -47z"/>
<path d="M2514 318 c1 -135 2 -143 21 -146 11 -1 28 3 37 10 16 12 16 23 7
117 -10 110 -24 154 -50 159 -13 2 -15 -16 -15 -140z"/>
<path d="M2183 248 c-76 -79 -99 -132 -68 -158 20 -17 39 0 106 97 51 74 51
75 32 94 -18 19 -19 18 -70 -33z"/>
<path d="M3430 228 c0 -9 9 -27 20 -41 11 -14 20 -39 20 -55 0 -29 3 -31 56
-43 58 -13 78 -8 97 23 6 8 7 26 4 40 -12 45 -197 116 -197 76z"/>
</g>
</svg>
